<svg xmlns="http://www.w3.org/2000/svg" viewBox="0 -3166.12 3166 3166">
	<path d="M 1583.44 -3166.12 C 2457.24 -3166.12 3166.14 -2457.26 3166.14 -1583.22 C 3166.14 -708.969 2457.24 0 1583.44 0 C 891.238 0 309.602 -446.711 94.3477 -1065.43 C 89.957 -1070.71 87.8477 -1075.16 90.0703 -1077.66 C 131.902 -1132.57 208.441 -1222.1 279.91 -1283.42 C 403.32 -1387.31 544.164 -1466.48 580.648 -1486.33 C 608.754 -1501.67 637.105 -1516.22 665.621 -1530.25 C 1209.52 -1815.42 1708.39 -1753.77 1708.39 -1753.77 C 1198.57 -1751.01 730.668 -1481.86 442.152 -1271.27 C 879.648 -928.219 1245.58 -525.238 1880 -1145.34 C 2084.13 -1344.25 2428 -1487.76 2776.03 -1456.42 C 1993.16 -2532.28 744.848 -2754.2 379.172 -1484.12 C 297.992 -1429.58 140.813 -1316.33 47.1055 -1216.32 C 18.8125 -1334.62 0 -1456.42 0 -1583.22 C 0 -2457.26 708.863 -3166.12 1583.44 -3166.12" fill="#000000"/>
</svg>
