<?xml version="1.0" encoding="UTF-8" standalone="no"?>
<!DOCTYPE svg PUBLIC "-//W3C//DTD SVG 1.2 Tiny//EN"
  "http://www.w3.org/Graphics/SVG/1.2/DTD/svg12-tiny.dtd">
<svg xmlns="http://www.w3.org/2000/svg"
     version="1.2"
     baseProfile="tiny"
     viewBox="0 0 422.14667 422.14667"
     width="422.14667"
     height="422.14667">
  <path d="M 1583.44,3166.12 C 708.863,3166.12 0,2457.26 0,1583.22 c 0,-126.8 18.8125,-248.6 47.1055,-366.9 93.7075,100.01 250.8865,213.26 332.0665,267.8 C 744.848,2754.2 1993.16,2532.28 2776.03,1456.42 2428,1487.76 2084.13,1344.25 1880,1145.34 1245.58,525.238 879.648,928.219 442.152,1271.27 c 288.516,210.59 756.418,479.74 1266.238,482.5 0,0 -498.87,61.65 -1042.769,-223.52 -28.516,-14.03 -56.867,-28.58 -84.973,-43.92 C 544.164,1466.48 403.32,1387.31 279.91,1283.42 208.441,1222.1 131.902,1132.57 90.0703,1077.66 c -2.2226,-2.5 -0.1133,-6.95 4.2774,-12.23 C 309.602,446.711 891.238,0 1583.44,0 c 873.8,0 1582.7,708.969 1582.7,1583.22 0,874.04 -708.9,1582.9 -1582.7,1582.9"
        fill="#100f0d" />
</svg>
